<svg width="17" height="16" viewBox="0 0 17 16" fill="none" xmlns="http://www.w3.org/2000/svg">
<path d="M13.8475 2.82817C13.842 2.81984 13.8364 2.8115 13.8253 2.80872C12.767 2.32261 11.6475 1.97539 10.5003 1.77817C10.4892 1.77539 10.4781 1.77817 10.4698 1.78095C10.4614 1.78372 10.4531 1.79206 10.4475 1.80317C10.2948 2.07817 10.1559 2.36428 10.0336 2.65317C8.79476 2.46428 7.53643 2.46428 6.30032 2.65317C6.17532 2.3615 6.03643 2.07817 5.88087 1.80317C5.87532 1.79484 5.86698 1.7865 5.85865 1.78095C5.85032 1.77539 5.8392 1.77539 5.82809 1.77539C4.68087 1.97261 3.56143 2.31984 2.50309 2.80595C2.49476 2.80872 2.48643 2.81706 2.48087 2.82539C0.364205 5.9865 -0.216351 9.07261 0.0669822 12.1171C0.0669822 12.1254 0.06976 12.1309 0.0725378 12.1393C0.0753156 12.1476 0.0808711 12.1504 0.0864267 12.1559C1.31976 13.0698 2.69754 13.7671 4.1642 14.2171C4.17532 14.2198 4.18643 14.2198 4.19476 14.2171C4.20309 14.2143 4.2142 14.2059 4.21976 14.1976C4.53365 13.7698 4.8142 13.3143 5.05309 12.8421C5.05587 12.8365 5.05865 12.8282 5.05865 12.8198C5.05865 12.8115 5.05865 12.8059 5.05587 12.7976C5.05309 12.7893 5.05032 12.7837 5.04476 12.7809C5.0392 12.7782 5.03365 12.7726 5.02532 12.7698C4.58643 12.6004 4.15865 12.3976 3.75032 12.1615C3.74198 12.1559 3.73643 12.1504 3.73087 12.1448C3.72532 12.1393 3.72254 12.1282 3.72254 12.1198C3.72254 12.1115 3.72254 12.1032 3.72809 12.0948C3.73365 12.0865 3.73643 12.0809 3.74476 12.0754C3.83087 12.0115 3.91698 11.9448 3.99754 11.8782C4.00587 11.8726 4.0142 11.8671 4.02254 11.8671C4.03087 11.8671 4.04198 11.8671 4.05032 11.8698C6.72254 13.0893 9.61698 13.0893 12.2586 11.8698C12.267 11.8671 12.2781 11.8643 12.2864 11.8643C12.2948 11.8643 12.3059 11.8698 12.3114 11.8754C12.392 11.9421 12.4781 12.0115 12.5642 12.0754C12.5698 12.0809 12.5753 12.0865 12.5809 12.0948C12.5864 12.1032 12.5864 12.1115 12.5864 12.1198C12.5864 12.1282 12.5836 12.1365 12.5781 12.1448C12.5725 12.1532 12.567 12.1587 12.5614 12.1615C12.1531 12.4004 11.7281 12.6032 11.2864 12.7671C11.2809 12.7698 11.2725 12.7726 11.267 12.7782C11.2614 12.7837 11.2586 12.7893 11.2559 12.7976C11.2531 12.8059 11.2531 12.8115 11.2531 12.8198C11.2531 12.8282 11.2559 12.8337 11.2586 12.8421C11.5031 13.3143 11.7809 13.7671 12.092 14.1976C12.0975 14.2059 12.1086 14.2143 12.117 14.2171C12.1253 14.2198 12.1392 14.2198 12.1475 14.2171C13.617 13.7671 14.9975 13.0698 16.2336 12.1559C16.2392 12.1504 16.2448 12.1448 16.2475 12.1393C16.2503 12.1337 16.2531 12.1254 16.2531 12.1171C16.5948 8.59484 15.6836 5.5365 13.8392 2.82539L13.8475 2.82817ZM5.45865 10.2643C4.65309 10.2643 3.99198 9.52539 3.99198 8.61983C3.99198 7.71428 4.64198 6.97539 5.45865 6.97539C6.28365 6.97539 6.9392 7.71983 6.92532 8.61983C6.92532 9.52817 6.27532 10.2643 5.45865 10.2643ZM10.8864 10.2643C10.0809 10.2643 9.41976 9.52539 9.41976 8.61983C9.41976 7.71428 10.0698 6.97539 10.8864 6.97539C11.7114 6.97539 12.367 7.71983 12.3531 8.61983C12.3531 9.52817 11.7086 10.2643 10.8864 10.2643Z" fill="black"/>
</svg>
