<svg width="19" height="16" viewBox="0 0 19 16" fill="none" xmlns="http://www.w3.org/2000/svg">
<path d="M15.5785 2.18145C15.5722 2.17207 15.566 2.1627 15.5535 2.15957C14.3629 1.6127 13.1035 1.22207 11.8129 1.0002C11.8004 0.99707 11.7879 1.0002 11.7785 1.00332C11.7691 1.00645 11.7597 1.01582 11.7535 1.02832C11.5816 1.3377 11.4254 1.65957 11.2879 1.98457C9.89411 1.77207 8.47848 1.77207 7.08785 1.98457C6.94723 1.65645 6.79098 1.3377 6.61598 1.02832C6.60973 1.01895 6.60035 1.00957 6.59098 1.00332C6.5816 0.99707 6.5691 0.99707 6.5566 0.99707C5.26598 1.21895 4.0066 1.60957 2.81598 2.15645C2.8066 2.15957 2.79723 2.16895 2.79098 2.17832C0.40973 5.73457 -0.243395 9.20645 0.075355 12.6314C0.075355 12.6408 0.07848 12.6471 0.081605 12.6564C0.08473 12.6658 0.09098 12.6689 0.09723 12.6752C1.48473 13.7033 3.03473 14.4877 4.68473 14.9939C4.69723 14.9971 4.70973 14.9971 4.7191 14.9939C4.72848 14.9908 4.74098 14.9814 4.74723 14.9721C5.10035 14.4908 5.41598 13.9783 5.68473 13.4471C5.68785 13.4408 5.69098 13.4314 5.69098 13.4221C5.69098 13.4127 5.69098 13.4064 5.68785 13.3971C5.68473 13.3877 5.6816 13.3814 5.67535 13.3783C5.6691 13.3752 5.66285 13.3689 5.65348 13.3658C5.15973 13.1752 4.67848 12.9471 4.2191 12.6814C4.20973 12.6752 4.20348 12.6689 4.19723 12.6627C4.19098 12.6564 4.18785 12.6439 4.18785 12.6346C4.18785 12.6252 4.18785 12.6158 4.1941 12.6064C4.20035 12.5971 4.20348 12.5908 4.21285 12.5846C4.30973 12.5127 4.4066 12.4377 4.49723 12.3627C4.5066 12.3564 4.51598 12.3502 4.52535 12.3502C4.53473 12.3502 4.54723 12.3502 4.5566 12.3533C7.56285 13.7252 10.8191 13.7252 13.791 12.3533C13.8004 12.3502 13.8129 12.3471 13.8222 12.3471C13.8316 12.3471 13.8441 12.3533 13.8504 12.3596C13.941 12.4346 14.0379 12.5127 14.1347 12.5846C14.141 12.5908 14.1472 12.5971 14.1535 12.6064C14.1597 12.6158 14.1597 12.6252 14.1597 12.6346C14.1597 12.6439 14.1566 12.6533 14.1504 12.6627C14.1441 12.6721 14.1379 12.6783 14.1316 12.6814C13.6722 12.9502 13.1941 13.1783 12.6972 13.3627C12.691 13.3658 12.6816 13.3689 12.6754 13.3752C12.6691 13.3814 12.666 13.3877 12.6629 13.3971C12.6597 13.4064 12.6597 13.4127 12.6597 13.4221C12.6597 13.4314 12.6629 13.4377 12.666 13.4471C12.941 13.9783 13.2535 14.4877 13.6035 14.9721C13.6097 14.9814 13.6222 14.9908 13.6316 14.9939C13.641 14.9971 13.6566 14.9971 13.666 14.9939C15.3191 14.4877 16.8722 13.7033 18.2629 12.6752C18.2691 12.6689 18.2754 12.6627 18.2785 12.6564C18.2816 12.6502 18.2847 12.6408 18.2847 12.6314C18.6691 8.66895 17.6441 5.22832 15.5691 2.17832L15.5785 2.18145ZM6.14098 10.5471C5.23473 10.5471 4.49098 9.71582 4.49098 8.69707C4.49098 7.67832 5.22223 6.84707 6.14098 6.84707C7.0691 6.84707 7.8066 7.68457 7.79098 8.69707C7.79098 9.71895 7.05973 10.5471 6.14098 10.5471ZM12.2472 10.5471C11.341 10.5471 10.5972 9.71582 10.5972 8.69707C10.5972 7.67832 11.3285 6.84707 12.2472 6.84707C13.1754 6.84707 13.9129 7.68457 13.8972 8.69707C13.8972 9.71895 13.1722 10.5471 12.2472 10.5471Z" fill="black"/>
</svg>
