<svg width="16" height="16" viewBox="0 0 16 16" fill="none" xmlns="http://www.w3.org/2000/svg">
<path d="M10.25 3.5H5.75L4.58437 1.17188C4.52812 1.05938 4.5 0.934375 4.5 0.809375C4.5 0.3625 4.8625 0 5.30937 0H10.6906C11.1375 0 11.5 0.3625 11.5 0.809375C11.5 0.934375 11.4719 1.05938 11.4156 1.17188L10.25 3.5ZM5.3 5H10.7L12.2219 6.26875C14.3 8 15.5 10.5625 15.5 13.2656C15.5 14.775 14.275 16 12.7656 16H3.23125C1.725 16 0.5 14.775 0.5 13.2656C0.5 10.5625 1.7 8 3.77813 6.26875L5.3 5ZM8.125 7C7.78125 7 7.5 7.28125 7.5 7.625V7.75C6.6 7.75938 5.875 8.49063 5.875 9.39062C5.875 10.1938 6.45312 10.8781 7.24687 11.0094L8.55 11.2281C8.7375 11.2594 8.875 11.4219 8.875 11.6125C8.875 11.8281 8.7 12.0031 8.48438 12.0031L6.75 12C6.40625 12 6.125 12.2812 6.125 12.625C6.125 12.9688 6.40625 13.25 6.75 13.25H7.5V13.375C7.5 13.7188 7.78125 14 8.125 14C8.46875 14 8.75 13.7188 8.75 13.375V13.2281C9.53125 13.1 10.125 12.425 10.125 11.6094C10.125 10.8062 9.54688 10.1219 8.75313 9.99063L7.45 9.77188C7.2625 9.74063 7.125 9.57812 7.125 9.3875C7.125 9.17188 7.3 8.99687 7.51562 8.99687H9C9.34375 8.99687 9.625 8.71562 9.625 8.37187C9.625 8.02812 9.34375 7.74687 9 7.74687H8.75V7.62187C8.75 7.27812 8.46875 6.99687 8.125 6.99687V7Z" fill="black"/>
</svg>
