<svg width="14" height="16" viewBox="0 0 14 16" fill="none" xmlns="http://www.w3.org/2000/svg">
<path d="M12 1C13.1031 1 14 1.89688 14 3V13C14 14.1031 13.1031 15 12 15H2C0.896875 15 0 14.1031 0 13V3C0 1.89688 0.896875 1 2 1H12ZM5.42812 3C4.39687 3 3.55938 3.8375 3.55938 4.86875C3.55938 5.525 3.89688 6.1 4.40938 6.43437C3.89688 6.76875 3.55938 7.34375 3.55938 8C3.55938 8.65625 3.89688 9.23438 4.40938 9.56563C3.89688 9.9 3.55938 10.475 3.55938 11.1313C3.55938 12.1656 4.40625 13 5.4375 13C6.475 13 7.33125 12.1594 7.33125 11.1156V9.375C7.6625 9.68125 8.10625 9.86875 8.59375 9.86875H8.62813C9.65938 9.86875 10.4969 9.03125 10.4969 8C10.4969 7.34375 10.1594 6.76562 9.64688 6.43437C10.1594 6.1 10.4969 5.525 10.4969 4.86875C10.4969 3.8375 9.65938 3 8.62813 3H5.42812ZM6.72813 9.86875V11.1156C6.72813 11.8219 6.14687 12.3969 5.4375 12.3969C4.7375 12.3969 4.16563 11.8281 4.16563 11.1313C4.16563 10.4344 4.73125 9.86875 5.425 9.86875H6.72813ZM6.72813 6.73438V9.2625H5.425C4.72813 9.25937 4.16563 8.69375 4.16563 7.99687C4.16563 7.3 4.73125 6.73125 5.43125 6.73125H6.73125L6.72813 6.73438ZM8.62813 6.73438C9.325 6.73438 9.89375 7.3 9.89375 8C9.89375 8.7 9.32812 9.26562 8.62813 9.26562H8.59375C7.89687 9.26562 7.33125 8.7 7.33125 8C7.33125 7.3 7.89687 6.73438 8.59375 6.73438H8.62813ZM6.72813 6.13125H5.42812C4.73125 6.13125 4.1625 5.56563 4.1625 4.86875C4.1625 4.17188 4.72813 3.60313 5.42812 3.60313H6.72813V6.13125ZM8.62813 3.60313C9.325 3.60313 9.89375 4.16875 9.89375 4.86875C9.89375 5.56875 9.32812 6.13125 8.62813 6.13125H7.33125V3.60313H8.62813Z" fill="black"/>
</svg>
