<svg width="16" height="16" viewBox="0 0 16 16" fill="none" xmlns="http://www.w3.org/2000/svg">
<path d="M14.7375 7.37813L8.625 1.26562C8.45625 1.09375 8.225 1 7.9875 1C7.75 1 7.51875 1.09375 7.35 1.2625L6.07812 2.53125L7.6875 4.14062C8.53438 3.85625 9.33437 4.66562 9.04375 5.50625L10.5969 7.05937C11.6656 6.69062 12.5094 8.02813 11.7063 8.83125C10.8781 9.65938 9.5125 8.74063 9.95625 7.66563L8.50938 6.21875V10.0281C9.3 10.4187 9.20625 11.3344 8.79375 11.7469C8.59375 11.9469 8.31875 12.0625 8.03438 12.0625C7.75 12.0625 7.47813 11.95 7.275 11.7469C6.725 11.1969 6.92812 10.2812 7.625 9.99687V6.15312C6.975 5.8875 6.85625 5.19375 7.04375 4.74687L5.45625 3.15625L1.26562 7.34688C1.09375 7.51875 1 7.74687 1 7.98438C1 8.22188 1.09375 8.45312 1.26562 8.62187L7.37813 14.7375C7.54688 14.9062 7.775 15 8.01562 15C8.25625 15 8.48438 14.9062 8.65312 14.7375L14.7375 8.65312C14.9062 8.48438 15 8.25313 15 8.01562C15 7.77812 14.9062 7.54688 14.7375 7.37813Z" fill="black"/>
</svg>
