<svg width="14" height="16" viewBox="0 0 14 16" fill="none" xmlns="http://www.w3.org/2000/svg">
<path d="M13.7375 7.37813L7.625 1.26562C7.45625 1.09375 7.225 1 6.9875 1C6.75 1 6.51875 1.09375 6.35 1.2625L5.07812 2.53125L6.6875 4.14062C7.53438 3.85625 8.33437 4.66562 8.04375 5.50625L9.59688 7.05937C10.6656 6.69062 11.5094 8.02813 10.7063 8.83125C9.87813 9.65938 8.5125 8.74063 8.95625 7.66563L7.50938 6.21875V10.0281C8.3 10.4187 8.20625 11.3344 7.79375 11.7469C7.59375 11.9469 7.31875 12.0625 7.03438 12.0625C6.75 12.0625 6.47813 11.95 6.275 11.7469C5.725 11.1969 5.92812 10.2812 6.625 9.99687V6.15312C5.975 5.8875 5.85625 5.19375 6.04375 4.74687L4.45625 3.15625L0.265625 7.34688C0.09375 7.51875 0 7.74687 0 7.98438C0 8.22188 0.09375 8.45312 0.265625 8.62187L6.37813 14.7375C6.54688 14.9062 6.775 15 7.01562 15C7.25625 15 7.48438 14.9062 7.65312 14.7375L13.7375 8.65312C13.9062 8.48438 14 8.25313 14 8.01562C14 7.77812 13.9062 7.54688 13.7375 7.37813Z" fill="black"/>
</svg>
