<svg width="14" height="16" viewBox="0 0 14 16" fill="none" xmlns="http://www.w3.org/2000/svg">
<path d="M14 3C14 1.89688 13.1031 1 12 1H2C0.896875 1 0 1.89688 0 3V13C0 14.1031 0.896875 15 2 15H12C13.1031 15 14 14.1031 14 13V3ZM8.30625 12.7406C8.30625 12.6844 8.30625 12.5531 8.30937 12.3781C8.3125 12.0219 8.3125 11.4781 8.3125 11.0125C8.3125 10.525 8.15 10.2156 7.95937 10.0531C9.11563 9.925 10.3344 9.76562 10.3344 7.76875C10.3344 7.2 10.1313 6.91563 9.8 6.55C9.85313 6.41563 10.0312 5.8625 9.74687 5.14375C9.3125 5.00938 8.31875 5.70312 8.31875 5.70312C7.4875 5.46875 6.55 5.46875 5.71875 5.70312C5.71875 5.70312 4.725 5.00938 4.29063 5.14375C4.00625 5.85938 4.18125 6.4125 4.2375 6.55C3.90625 6.91563 3.75 7.2 3.75 7.76875C3.75 9.75625 4.91563 9.925 6.07188 10.0531C5.92188 10.1875 5.7875 10.4187 5.74062 10.75C5.44375 10.8844 4.68437 11.1156 4.23125 10.3156C3.94687 9.82188 3.43438 9.78125 3.43438 9.78125C2.92812 9.775 3.4 10.1 3.4 10.1C3.7375 10.2563 3.975 10.8562 3.975 10.8562C4.27812 11.7844 5.72813 11.4719 5.72813 11.4719C5.72813 11.7531 5.73125 12.15 5.73125 12.4281C5.73125 12.5781 5.73438 12.6969 5.73438 12.7406C5.73438 12.875 5.64062 13.0375 5.375 12.9906C3.3125 12.3 1.86875 10.3375 1.86875 8.04375C1.86875 5.175 4.0625 2.99688 6.93125 2.99688C9.8 2.99688 12.125 5.175 12.125 8.04375C12.1281 10.3375 10.7281 12.3031 8.66562 12.9906C8.40312 13.0375 8.30625 12.875 8.30625 12.7406ZM5.47813 11.0281C5.47188 10.9812 5.5125 10.9406 5.57188 10.9281C5.63125 10.9219 5.6875 10.9469 5.69375 10.9875C5.70312 11.0281 5.6625 11.0688 5.6 11.0813C5.54063 11.0938 5.48438 11.0687 5.47813 11.0281ZM5.19375 11.1281C5.125 11.1344 5.07812 11.1 5.07812 11.0531C5.07812 11.0125 5.125 10.9781 5.1875 10.9781C5.24687 10.9719 5.30312 11.0063 5.30312 11.0531C5.30312 11.0938 5.25625 11.1281 5.19375 11.1281ZM4.74687 11.0594C4.6875 11.0469 4.64688 11 4.65938 10.9594C4.67188 10.9188 4.73438 10.9 4.7875 10.9125C4.85 10.9313 4.89062 10.9781 4.875 11.0188C4.8625 11.0594 4.8 11.0781 4.74687 11.0594ZM4.35625 10.8313C4.30937 10.7906 4.29688 10.7312 4.32812 10.7031C4.35625 10.6687 4.41563 10.675 4.4625 10.7219C4.50313 10.7625 4.51875 10.825 4.49062 10.85C4.4625 10.8844 4.40312 10.8781 4.35625 10.8313ZM4.09062 10.5188C4.05625 10.4719 4.05625 10.4188 4.09062 10.3969C4.125 10.3688 4.17813 10.3906 4.20625 10.4375C4.24063 10.4844 4.24063 10.5406 4.20625 10.5656C4.17813 10.5844 4.125 10.5656 4.09062 10.5188ZM3.89375 10.2437C3.85938 10.2031 3.85312 10.1562 3.88125 10.1344C3.90937 10.1062 3.95625 10.1219 3.99062 10.1531C4.025 10.1937 4.03125 10.2406 4.00313 10.2625C3.975 10.2906 3.92812 10.275 3.89375 10.2437ZM3.70625 10.0437C3.66562 10.025 3.64687 9.99062 3.65937 9.9625C3.67188 9.94375 3.70625 9.93437 3.74688 9.95C3.7875 9.97188 3.80625 10.0063 3.79375 10.0312C3.78125 10.0594 3.74062 10.0656 3.70625 10.0437Z" fill="black"/>
</svg>
