<svg width="16" height="16" viewBox="0 0 16 16" fill="none" xmlns="http://www.w3.org/2000/svg">
<path d="M11.8745 15.0026C11.815 15.0341 11.82 15.0441 11.877 15.0151C11.8946 15.0081 11.9107 14.9977 11.9245 14.9846C11.9245 14.9741 11.9245 14.9741 11.8745 15.0026ZM11.9945 14.9376C11.966 14.9611 11.966 14.9611 12 14.9456C12.0124 14.9394 12.0238 14.9315 12.034 14.9221C12.034 14.9086 12.026 14.9116 11.9945 14.9376ZM12.0725 14.8906C12.044 14.9141 12.044 14.9141 12.078 14.8986C12.0904 14.8922 12.1018 14.8842 12.112 14.8746C12.112 14.8621 12.104 14.8646 12.0725 14.8906ZM12.1515 14.8441C12.123 14.8676 12.123 14.8676 12.156 14.8516C12.1745 14.8416 12.19 14.8311 12.19 14.8281C12.19 14.8156 12.182 14.8181 12.1515 14.8441ZM12.258 14.7736C12.2035 14.8101 12.1845 14.8336 12.2345 14.8076C12.268 14.7871 12.325 14.7421 12.315 14.7421C12.2935 14.7501 12.2755 14.7636 12.2575 14.7736H12.258ZM7.4765 0.00562814C7.44 0.00812814 7.3305 0.0181281 7.2345 0.0261281C4.9605 0.232128 2.833 1.45613 1.4845 3.34163C0.738794 4.37548 0.254341 5.57444 0.0725 6.83613C0.008 7.27613 0 7.40613 0 8.00263C0 8.59863 0.008 8.72663 0.0725 9.16663C0.508 12.1721 2.646 14.6951 5.544 15.6301C6.0655 15.7966 6.612 15.9116 7.2345 15.9821C7.4765 16.0081 8.523 16.0081 8.765 15.9821C9.841 15.8621 10.7495 15.5966 11.6485 15.1381C11.7865 15.0681 11.8125 15.0496 11.794 15.0341C11.3554 14.4544 10.9206 13.8719 10.4895 13.2866L9.211 11.5601L7.6095 9.18763C7.07679 8.39326 6.53861 7.60257 5.995 6.81563C5.9895 6.81563 5.9825 7.87013 5.9795 9.15613C5.974 11.4086 5.974 11.5001 5.9455 11.5521C5.91825 11.615 5.86925 11.6659 5.8075 11.6956C5.758 11.7191 5.7135 11.7241 5.477 11.7241H5.2065L5.136 11.6801C5.09192 11.6517 5.05606 11.6122 5.032 11.5656L4.998 11.4951L5.0005 8.35963L5.006 5.22413L5.0555 5.16163C5.08753 5.12362 5.12636 5.09191 5.17 5.06813C5.2355 5.03663 5.2615 5.03163 5.532 5.03163C5.8495 5.03163 5.902 5.04413 5.9855 5.13563C6.63426 6.10057 7.27744 7.06925 7.915 8.04163C8.9545 9.61763 10.3735 11.7681 11.071 12.8231L12.3395 14.7426L12.402 14.7011C13.0114 14.2958 13.5638 13.8106 14.0445 13.2586C15.0522 12.1051 15.7061 10.6856 15.928 9.17013C15.9925 8.73013 16.0005 8.59963 16.0005 8.00363C16.0005 7.40763 15.9925 7.27963 15.928 6.83963C15.4925 3.83413 13.3545 1.31113 10.4565 0.375628C9.91487 0.204144 9.35742 0.0873935 8.7925 0.0271281C8.641 0.0116281 7.607 -0.00687186 7.477 0.00662814L7.4765 0.00562814ZM10.75 4.84413C10.7872 4.86233 10.8205 4.88781 10.8477 4.91907C10.8749 4.95033 10.8956 4.98674 10.9085 5.02613C10.922 5.06813 10.9245 5.93763 10.922 7.89613L10.9165 10.7081L10.422 9.94813L9.9245 9.18763V7.14613C9.9245 5.82263 9.93 5.08063 9.937 5.04413C9.96148 4.96044 10.0176 4.88959 10.0935 4.84663C10.1555 4.81513 10.1795 4.81263 10.427 4.81263C10.6585 4.81263 10.698 4.81513 10.75 4.84413Z" fill="black"/>
</svg>
