<svg width="20" height="16" viewBox="0 0 20 16" fill="none" xmlns="http://www.w3.org/2000/svg">
<path d="M17.2227 9.12188C16.5946 9.12188 15.9727 9.26563 15.4102 9.54375C15.2258 9.17188 15.0352 8.84688 15.0039 8.60313C14.9664 8.31875 14.9258 8.15 14.9696 7.8125C15.0133 7.475 15.2102 6.99688 15.2071 6.9625C15.2039 6.92813 15.1633 6.75625 14.7602 6.75313C14.3571 6.75 14.0102 6.83125 13.9696 6.9375C13.8977 7.13125 13.8414 7.33125 13.8039 7.53438C13.7321 7.9 12.9977 9.20625 12.5821 9.8875C12.4446 9.62188 12.3289 9.3875 12.3039 9.2C12.2664 8.91563 12.2258 8.74688 12.2696 8.40938C12.3133 8.07188 12.5102 7.59375 12.5071 7.55938C12.5039 7.525 12.4633 7.35313 12.0602 7.35C11.6571 7.34688 11.3102 7.42813 11.2696 7.53438C11.2289 7.64063 11.1852 7.89063 11.1039 8.13125C11.0227 8.37188 10.0446 10.5469 9.78831 11.1125C9.65706 11.4 9.54456 11.6313 9.46331 11.7875C9.45081 11.8125 9.44144 11.8281 9.43519 11.8406C9.44456 11.825 9.45081 11.8094 9.45081 11.8156C9.38206 11.95 9.34144 12.025 9.34144 12.025V12.0281C9.28831 12.1281 9.22894 12.2188 9.20081 12.2188C9.18206 12.2188 9.14144 11.9563 9.21019 11.5969C9.35706 10.8406 9.70394 9.66563 9.70081 9.625C9.69769 9.60313 9.76644 9.4 9.47269 9.29063C9.18831 9.1875 9.08519 9.35938 9.06019 9.35938C9.03519 9.35938 9.01644 9.42188 9.01644 9.42188C9.01644 9.42188 9.33206 8.09688 8.41019 8.09688C7.83519 8.09688 7.03519 8.72813 6.64144 9.3C6.39456 9.43438 5.86019 9.725 5.29769 10.0344C5.08206 10.1531 4.86019 10.275 4.65081 10.3906C4.63519 10.375 4.62269 10.3594 4.60706 10.3438C3.48831 9.15 1.42269 8.30625 1.51019 6.70313C1.54144 6.11875 1.74456 4.58438 5.48206 2.72188C8.54456 1.19688 10.9914 1.61563 11.4133 2.54688C12.0196 3.875 10.1039 6.34688 6.92269 6.70313C5.71019 6.8375 5.07269 6.36875 4.91331 6.19375C4.74769 6.00938 4.72269 6 4.66019 6.03438C4.55706 6.09063 4.62269 6.25313 4.66019 6.35C4.75394 6.59688 5.14456 7.03438 5.81019 7.25313C6.39456 7.44375 7.81644 7.55 9.53519 6.88438C11.4664 6.14063 12.9696 4.06875 12.5289 2.33438C12.0789 0.571879 9.15706 -0.00624585 6.39456 0.975004C4.74769 1.55938 2.96644 2.47813 1.68519 3.675C0.163312 5.1 -0.0804378 6.34063 0.0195622 6.85938C0.375812 8.7 2.91331 9.9 3.92894 10.7875C3.87894 10.8156 3.83206 10.8406 3.78831 10.8656C3.27894 11.1188 1.34456 12.1313 0.860187 13.2C0.313312 14.4125 0.950812 15.2813 1.36956 15.4C2.67581 15.7625 4.01331 15.1094 4.73206 14.0375C5.45081 12.9656 5.36331 11.5656 5.03206 10.9281C5.02894 10.9188 5.02269 10.9125 5.01956 10.9031C5.15081 10.825 5.28519 10.7469 5.41956 10.6688C5.67894 10.5156 5.93206 10.375 6.15394 10.2531C6.02894 10.5906 5.93831 10.9969 5.89144 11.5844C5.83519 12.2719 6.11956 13.1625 6.48831 13.5125C6.65081 13.6656 6.84769 13.6688 6.96956 13.6688C7.40081 13.6688 7.59456 13.3125 7.81019 12.8875C8.07581 12.3688 8.31019 11.7656 8.31019 11.7656C8.31019 11.7656 8.01644 13.3969 8.81956 13.3969C9.11331 13.3969 9.40706 13.0188 9.53831 12.825V12.8281C9.53831 12.8281 9.54456 12.8156 9.56019 12.7906C9.59144 12.7438 9.60706 12.7156 9.60706 12.7156V12.7063C9.72581 12.5031 9.98519 12.0375 10.3758 11.2688C10.8821 10.275 11.3664 9.03438 11.3664 9.03438C11.4133 9.30625 11.4789 9.575 11.5602 9.84063C11.6477 10.1375 11.8321 10.4625 11.9789 10.7781C11.8602 10.9406 11.7883 11.0344 11.7883 11.0344C11.7883 11.0375 11.7883 11.0375 11.7914 11.0406C11.6977 11.1656 11.5914 11.3 11.4821 11.4313C11.0821 11.9063 10.6071 12.45 10.5446 12.6063C10.4696 12.7906 10.4883 12.9281 10.6321 13.0344C10.7383 13.1156 10.9258 13.1281 11.1227 13.1125C11.4821 13.0875 11.7352 13 11.8571 12.9438C12.0821 12.8625 12.2946 12.7531 12.4883 12.6125C12.8789 12.325 13.1164 11.9125 13.0946 11.3688C13.0821 11.0688 12.9852 10.7688 12.8664 10.4875C12.9008 10.4375 12.9383 10.3844 12.9727 10.3313C13.5914 9.42813 14.0696 8.4375 14.0696 8.4375C14.1164 8.70938 14.1821 8.97813 14.2633 9.24375C14.3383 9.49688 14.4852 9.775 14.6196 10.0469C14.0383 10.5188 13.6789 11.0656 13.5539 11.425C13.3227 12.0906 13.5039 12.3906 13.8446 12.4594C13.9977 12.4906 14.2164 12.4188 14.3789 12.35C14.6196 12.2688 14.8477 12.1531 15.0539 12.0031C15.4446 11.7156 15.8227 11.3125 15.7977 10.7656C15.7883 10.5188 15.7196 10.2719 15.6289 10.0344C16.1196 9.82813 16.7571 9.71563 17.5696 9.80938C19.3102 10.0125 19.6508 11.1 19.5852 11.5531C19.5196 12.0063 19.1539 12.2594 19.0321 12.3344C18.9102 12.4094 18.8727 12.4375 18.8821 12.4938C18.8977 12.575 18.9539 12.5719 19.0571 12.5531C19.2008 12.5281 19.9696 12.1844 20.0039 11.3438C20.0539 10.2813 19.0321 9.1125 17.2227 9.12188ZM3.81331 13.6438C3.23831 14.2719 2.43206 14.5094 2.08519 14.3094C1.71331 14.0938 1.86019 13.1688 2.56956 12.5C3.00081 12.0938 3.55706 11.7188 3.92581 11.4875C4.01019 11.4375 4.13206 11.3625 4.28206 11.2719C4.30706 11.2563 4.31956 11.25 4.31956 11.25C4.34769 11.2313 4.37894 11.2156 4.41019 11.1969C4.66956 12.1469 4.41956 12.9844 3.81331 13.6438ZM8.01331 10.7875C7.81331 11.2781 7.39144 12.5281 7.13519 12.4625C6.91644 12.4063 6.78206 11.4531 7.09144 10.5156C7.24769 10.0438 7.57894 9.48125 7.77581 9.2625C8.09144 8.90938 8.43831 8.79688 8.51956 8.9375C8.62894 9.12188 8.13831 10.4813 8.01331 10.7875ZM11.4821 12.4438C11.3977 12.4875 11.3196 12.5156 11.2821 12.4938C11.2539 12.4781 11.3164 12.4188 11.3164 12.4188C11.3164 12.4188 11.7508 11.9531 11.9227 11.7406C12.0227 11.6156 12.1383 11.4688 12.2633 11.3063C12.2633 11.3219 12.2664 11.3375 12.2664 11.3563C12.2633 11.9156 11.7258 12.2938 11.4821 12.4438ZM14.1571 11.8344C14.0946 11.7906 14.1039 11.6438 14.3133 11.1875C14.3946 11.0094 14.5821 10.7094 14.9071 10.4219C14.9446 10.5313 14.9633 10.6438 14.9664 10.7594C14.9633 11.4625 14.4602 11.725 14.1571 11.8344Z" fill="black"/>
</svg>
