<svg width="16" height="16" viewBox="0 0 16 16" fill="none" xmlns="http://www.w3.org/2000/svg">
<path d="M8 0.25C5.94457 0.25 3.97333 1.06652 2.51992 2.51992C1.06652 3.97333 0.25 5.94457 0.25 8C0.25 10.0554 1.06652 12.0267 2.51992 13.4801C3.97333 14.9335 5.94457 15.75 8 15.75C10.0554 15.75 12.0267 14.9335 13.4801 13.4801C14.9335 12.0267 15.75 10.0554 15.75 8C15.75 5.94457 14.9335 3.97333 13.4801 2.51992C12.0267 1.06652 10.0554 0.25 8 0.25ZM11.5938 5.52187C11.4781 6.74687 10.9719 9.72188 10.7156 11.0938C10.6062 11.675 10.3938 11.8687 10.1875 11.8875C9.7375 11.9281 9.39688 11.5906 8.95938 11.3031C8.27813 10.8563 7.89062 10.5781 7.23125 10.1406C6.46562 9.6375 6.9625 9.35938 7.39687 8.90625C7.5125 8.7875 9.49375 6.98438 9.53125 6.82188C9.5375 6.8 9.54062 6.725 9.49375 6.68437C9.44687 6.64375 9.38125 6.65937 9.33438 6.66875C9.26562 6.68437 8.175 7.40312 6.06563 8.82812C5.75625 9.04062 5.475 9.14375 5.225 9.1375C4.94688 9.13125 4.41563 8.98125 4.01875 8.85312C3.53438 8.69687 3.14688 8.6125 3.18125 8.34375C3.2 8.20312 3.39062 8.0625 3.75625 7.91563C6.01562 6.93125 7.52187 6.28125 8.275 5.96875C10.4281 5.075 10.875 4.91875 11.1656 4.9125C11.2312 4.9125 11.3719 4.92813 11.4656 5.00313C11.5281 5.05625 11.5656 5.13125 11.575 5.2125C11.5906 5.3125 11.5938 5.41563 11.5875 5.51875L11.5938 5.52187Z" fill="black"/>
</svg>
