<svg width="16" height="16" viewBox="0 0 16 16" fill="none" xmlns="http://www.w3.org/2000/svg">
<path d="M15.2694 4.33595C15.0972 3.67761 14.5805 3.16095 13.9278 2.98595C12.7472 2.6665 8.00277 2.6665 8.00277 2.6665C8.00277 2.6665 3.25832 2.6665 2.07499 2.98595C1.42221 3.16095 0.908323 3.67761 0.733323 4.33595C0.416656 5.52762 0.416656 8.01095 0.416656 8.01095C0.416656 8.01095 0.416656 10.4943 0.733323 11.6859C0.908323 12.3415 1.42221 12.8387 2.07499 13.0137C3.25832 13.3332 8.00277 13.3332 8.00277 13.3332C8.00277 13.3332 12.7472 13.3332 13.9305 13.0137C14.5833 12.8387 15.0972 12.3415 15.2722 11.6859C15.5889 10.4943 15.5889 8.01095 15.5889 8.01095C15.5889 8.01095 15.5889 5.52762 15.2722 4.33595H15.2694ZM6.44999 10.2665V5.75539L10.4139 8.01095L6.44999 10.2665Z" fill="black"/>
</svg>
