<svg width="18" height="16" viewBox="0 0 18 16" fill="none" xmlns="http://www.w3.org/2000/svg">
<path d="M17.1781 3.87812C16.9844 3.1375 16.4031 2.55625 15.6687 2.35938C14.3406 2 9.00313 2 9.00313 2C9.00313 2 3.66562 2 2.33437 2.35938C1.6 2.55625 1.02188 3.1375 0.825 3.87812C0.46875 5.21875 0.46875 8.0125 0.46875 8.0125C0.46875 8.0125 0.46875 10.8063 0.825 12.1469C1.02188 12.8844 1.6 13.4438 2.33437 13.6406C3.66562 14 9.00313 14 9.00313 14C9.00313 14 14.3406 14 15.6719 13.6406C16.4062 13.4438 16.9844 12.8844 17.1812 12.1469C17.5375 10.8063 17.5375 8.0125 17.5375 8.0125C17.5375 8.0125 17.5375 5.21875 17.1812 3.87812H17.1781ZM7.25625 10.55V5.475L11.7156 8.0125L7.25625 10.55Z" fill="black"/>
</svg>
