<svg width="123" height="48" viewBox="0 0 123 48" fill="none" xmlns="http://www.w3.org/2000/svg">
<g clip-path="url(#clip0_227_7376)">
<path fill-rule="evenodd" clip-rule="evenodd" d="M24.0155 12.7495C21.0448 12.7495 20.7477 13.0635 19.2101 13.0635C17.9295 13.0635 14.0836 9.9375 12.1627 9.9375C10.2417 9.9375 7.99765 11.0635 7.99765 14.3135V18.0635C8.00166 19.0475 8.35895 22.0635 9.76402 21.2575C8.10403 23.2135 7.93743 25.4955 7.95951 27.7035C7.51189 27.8315 7.05625 27.9775 6.61265 28.1275C5.23969 28.5955 3.78243 29.1915 3.12606 29.6155C2.79067 29.8314 2.5551 30.1712 2.47115 30.5601C2.38721 30.9491 2.46177 31.3553 2.67844 31.6895C2.89511 32.0237 3.23613 32.2584 3.62649 32.342C4.01685 32.4257 4.42457 32.3514 4.75996 32.1355C5.07309 31.9335 6.20718 31.4355 7.58616 30.9655L8.04381 30.8155C8.13615 31.6815 8.36698 32.4755 8.71022 33.1955L8.66205 33.2215C7.83907 33.6535 7.07632 34.1515 6.59057 34.4675L6.36375 34.6155C6.02836 34.8314 5.79279 35.1712 5.70884 35.5601C5.6249 35.9491 5.69946 36.3553 5.91613 36.6895C6.1328 37.0237 6.47382 37.2584 6.86418 37.342C7.25454 37.4257 7.66226 37.3514 7.99765 37.1355L8.2606 36.9635C8.75237 36.6435 9.38265 36.2335 10.0691 35.8735C10.2297 35.7882 10.3843 35.7108 10.5328 35.6415C14.0053 38.8875 20.2419 39.9375 24.0155 39.9375C27.7891 39.9375 34.0256 38.8875 37.4982 35.6415C37.6454 35.7108 37.7999 35.7882 37.9618 35.8735C38.6483 36.2335 39.2786 36.6435 39.7704 36.9635L40.0333 37.1355C40.3687 37.3514 40.7764 37.4257 41.1668 37.342C41.5571 37.2584 41.8982 37.0237 42.1148 36.6895C42.3315 36.3553 42.4061 35.9491 42.3221 35.5601C42.2382 35.1712 42.0026 34.8314 41.6672 34.6155L41.4404 34.4675C40.7696 34.0205 40.0784 33.6047 39.3689 33.2215L39.3207 33.1955C39.664 32.4755 39.8948 31.6815 39.9872 30.8155L40.4448 30.9655C41.8238 31.4355 42.9579 31.9335 43.273 32.1355C43.6082 32.3393 44.0101 32.4045 44.3929 32.3172C44.7757 32.2299 45.1091 31.997 45.322 31.6682C45.5349 31.3395 45.6105 30.9408 45.5326 30.5573C45.4546 30.1738 45.2294 29.8359 44.9049 29.6155C44.2485 29.1915 42.7913 28.5955 41.4203 28.1275C40.9739 27.9756 40.5242 27.8336 40.0715 27.7015C40.0955 25.4935 39.9269 23.2135 38.2649 21.2575C39.67 22.0635 40.0313 19.0475 40.0333 18.0615V14.3135C40.0333 11.0635 37.7912 9.9375 35.8683 9.9375C33.9473 9.9375 30.1015 13.0635 28.8228 13.0635C27.2833 13.0635 26.9862 12.7495 24.0155 12.7495ZM22.6606 31.1375C23.0661 30.9995 23.5458 30.9375 24.0155 30.9375C24.4852 30.9375 24.9649 30.9995 25.3724 31.1375C25.5731 31.2055 25.814 31.3135 26.0308 31.4855C26.1793 31.5973 26.3007 31.7408 26.3862 31.9056C26.4716 32.0704 26.5189 32.2521 26.5245 32.4375C26.5245 32.8975 26.2455 33.2175 26.0308 33.3895C25.816 33.5615 25.5711 33.6695 25.3724 33.7375C24.9649 33.8755 24.4852 33.9375 24.0155 33.9375C23.5458 33.9375 23.0661 33.8755 22.6606 33.7375C22.4222 33.6597 22.1989 33.542 22.0002 33.3895C21.8517 33.2777 21.7302 33.1341 21.6448 32.9694C21.5593 32.8046 21.512 32.6229 21.5064 32.4375C21.5064 31.9775 21.7854 31.6575 22.0002 31.4855C22.215 31.3135 22.4619 31.2055 22.6606 31.1375ZM28.3712 24.9375C28.6462 24.4815 29.1861 23.9375 29.9971 23.9375C30.808 23.9375 31.35 24.4815 31.6229 24.9375C31.908 25.4155 32.0445 25.9915 32.0445 26.5635C32.0445 27.1355 31.908 27.7095 31.6229 28.1855C31.35 28.6435 30.808 29.1875 29.9971 29.1875C29.1861 29.1875 28.6462 28.6435 28.3712 28.1875C28.0883 27.6931 27.9428 27.1325 27.9497 26.5635C27.9497 25.9915 28.0862 25.4155 28.3712 24.9395M16.408 24.9395C16.683 24.4835 17.223 23.9395 18.0339 23.9395C18.8448 23.9395 19.3868 24.4835 19.6598 24.9395C19.9448 25.4175 20.0813 25.9935 20.0813 26.5655C20.0813 27.1375 19.9448 27.7115 19.6598 28.1875C19.3868 28.6455 18.8448 29.1895 18.0339 29.1895C17.223 29.1895 16.683 28.6455 16.408 28.1895C16.1251 27.6951 15.9796 27.1346 15.9865 26.5655C15.9865 25.9935 16.123 25.4155 16.408 24.9395Z" fill="#F2F2F2"/>
</g>
<path d="M55.7778 32.7222V30.0556H58V16.7222H67.3333V32.7222H64.6667V19.3889H60.6667V30.5H58.4444V32.7222H55.7778ZM71.7843 30.0556H78.0065V28.2778H71.7843V30.0556ZM71.3398 32.7222V30.5H69.1176V27.8333H71.3398V25.6111H78.0065V23.8333H71.3398V21.1667H78.4324V23.4074H80.6732V32.7222H71.3398ZM82.4575 32.7222V21.1667H94.013V32.7222H91.3464V23.8333H85.1241V32.7222H82.4575ZM95.7973 32.7222V21.1667H98.464V25.6111H102.464V23.4074H104.686V21.1667H107.353V23.8333H105.112V26.0556H102.908V27.8333H105.112V30.0556H107.353V32.7222H104.686V30.5H102.464V28.2778H98.464V32.7222H95.7973ZM111.804 30.0556H118.026V28.2778H111.804V30.0556ZM111.359 32.7222V30.5H109.137V27.8333H111.359V25.6111H118.026V23.8333H111.359V21.1667H118.452V23.4074H120.693V32.7222H111.359Z" fill="#F2F2F2"/>
<defs>
<clipPath id="clip0_227_7376">
<rect width="48" height="48" fill="white"/>
</clipPath>
</defs>
</svg>
