<svg width="267" height="182" viewBox="0 0 267 182" fill="none" xmlns="http://www.w3.org/2000/svg">
<g clip-path="url(#clip0_227_7474)">
<path fill-rule="evenodd" clip-rule="evenodd" d="M133.741 33.9987C125.819 33.9987 125.027 34.836 120.927 34.836C117.512 34.836 107.256 26.5 102.134 26.5C97.0113 26.5 91.0271 29.5027 91.0271 38.1693V48.1693C91.0378 50.7933 91.9905 58.836 95.7374 56.6867C91.3108 61.9027 90.8665 67.988 90.9254 73.876C89.7317 74.2173 88.5167 74.6067 87.3337 75.0067C83.6725 76.2547 79.7865 77.844 78.0362 78.9747C77.1418 79.5504 76.5136 80.4565 76.2898 81.4937C76.0659 82.5309 76.2647 83.6142 76.8425 84.5053C77.4203 85.3965 78.3297 86.0224 79.3707 86.2454C80.4116 86.4685 81.4989 86.2704 82.3932 85.6947C83.2282 85.156 86.2525 83.828 89.9298 82.5747L91.1502 82.1747C91.3964 84.484 92.012 86.6013 92.9273 88.5213L92.7988 88.5907C90.6042 89.7427 88.5702 91.0707 87.2749 91.9133L86.67 92.308C85.7756 92.8837 85.1474 93.7898 84.9236 94.827C84.6997 95.8642 84.8986 96.9475 85.4764 97.8387C86.0541 98.7298 86.9635 99.3557 88.0045 99.5788C89.0455 99.8018 90.1327 99.6037 91.0271 99.028L91.7283 98.5693C93.0397 97.716 94.7204 96.6227 96.551 95.6627C96.9792 95.4351 97.3914 95.2289 97.7875 95.044C107.048 103.7 123.678 106.5 133.741 106.5C143.804 106.5 160.435 103.7 169.695 95.044C170.088 95.2289 170.5 95.4351 170.932 95.6627C172.762 96.6227 174.443 97.716 175.754 98.5693L176.456 99.028C177.35 99.6037 178.437 99.8018 179.478 99.5788C180.519 99.3557 181.428 98.7298 182.006 97.8387C182.584 96.9475 182.783 95.8642 182.559 94.827C182.335 93.7898 181.707 92.8837 180.813 92.308L180.208 91.9133C178.419 90.7213 176.576 89.6125 174.684 88.5907L174.555 88.5213C175.471 86.6013 176.086 84.484 176.332 82.1747L177.553 82.5747C181.23 83.828 184.254 85.156 185.095 85.6947C185.989 86.2381 187.06 86.4119 188.081 86.1792C189.102 85.9464 189.991 85.3254 190.559 84.4487C191.127 83.5719 191.328 82.5089 191.12 81.4862C190.912 80.4636 190.312 79.5623 189.446 78.9747C187.696 77.844 183.81 76.2547 180.154 75.0067C178.964 74.6017 177.764 74.223 176.557 73.8707C176.621 67.9827 176.172 61.9027 171.74 56.6867C175.487 58.836 176.45 50.7933 176.456 48.164V38.1693C176.456 29.5027 170.477 26.5 165.349 26.5C160.226 26.5 149.971 34.836 146.561 34.836C142.455 34.836 141.663 33.9987 133.741 33.9987ZM130.128 83.0333C131.209 82.6653 132.489 82.5 133.741 82.5C134.994 82.5 136.273 82.6653 137.36 83.0333C137.895 83.2147 138.537 83.5027 139.115 83.9613C139.511 84.2594 139.835 84.6423 140.063 85.0816C140.291 85.521 140.417 86.0057 140.432 86.5C140.432 87.7267 139.688 88.58 139.115 89.0387C138.543 89.4973 137.89 89.7853 137.36 89.9667C136.273 90.3347 134.994 90.5 133.741 90.5C132.489 90.5 131.209 90.3347 130.128 89.9667C129.493 89.7592 128.897 89.4454 128.367 89.0387C127.971 88.7406 127.647 88.3577 127.419 87.9184C127.192 87.479 127.065 86.9943 127.05 86.5C127.05 85.2733 127.794 84.42 128.367 83.9613C128.94 83.5027 129.598 83.2147 130.128 83.0333ZM145.357 66.5C146.09 65.284 147.53 63.8333 149.692 63.8333C151.855 63.8333 153.3 65.284 154.028 66.5C154.788 67.7747 155.152 69.3107 155.152 70.836C155.152 72.3613 154.788 73.892 154.028 75.1613C153.3 76.3827 151.855 77.8333 149.692 77.8333C147.53 77.8333 146.09 76.3827 145.357 75.1667C144.602 73.8484 144.214 72.3535 144.233 70.836C144.233 69.3107 144.596 67.7747 145.357 66.5053M113.455 66.5053C114.188 65.2893 115.628 63.8387 117.79 63.8387C119.953 63.8387 121.398 65.2893 122.126 66.5053C122.886 67.78 123.25 69.316 123.25 70.8413C123.25 72.3667 122.886 73.8973 122.126 75.1667C121.398 76.388 119.953 77.8387 117.79 77.8387C115.628 77.8387 114.188 76.388 113.455 75.172C112.7 73.8537 112.312 72.3588 112.331 70.8413C112.331 69.316 112.695 67.7747 113.455 66.5053Z" fill="#F2F2F2"/>
</g>
<path d="M6.40001 165.8H16V148.2H6.40001V165.8ZM1.22786e-05 172.2V141.8H18.4V145.8H22.4V168.2H18.4V172.2H1.22786e-05ZM30.4117 165.8H40.0117V164.2H30.4117V165.8ZM28.0117 172.2V168.2H24.0117V161.8H28.0117V157.8H40.0117V156.2H28.0117V149.8H42.4117V153.8H46.4117V172.2H28.0117ZM48.0234 172.2V149.8H66.4234V153.8H70.4234V172.2H64.0234V156.2H54.4234V172.2H48.0234ZM72.0352 176.2V169.8H88.0352V168.2H76.0352V164.2H72.0352V149.8H78.4352V161.8H88.0352V149.8H94.4352V172.2H90.4352V176.2H72.0352ZM102.447 165.8H112.047V164.2H102.447V165.8ZM100.047 172.2V168.2H96.0469V161.8H100.047V157.8H112.047V156.2H100.047V149.8H114.447V153.8H118.447V172.2H100.047ZM120.059 176.2V169.8H142.459V176.2H120.059ZM144.07 172.2V141.8H150.47V165.8H166.47V172.2H144.07ZM174.482 165.8H184.082V164.2H174.482V165.8ZM172.082 172.2V168.2H168.082V161.8H172.082V157.8H184.082V156.2H172.082V149.8H186.482V153.8H190.482V172.2H172.082ZM198.494 161.8H208.094V156.2H202.494V160.2H198.494V161.8ZM192.094 176.2V149.8H198.494V153.8H200.094V149.8H210.494V153.8H214.494V164.2H210.494V168.2H198.494V176.2H192.094ZM218.105 172.2V141.8H224.505V157.8H226.105V153.8H230.105V149.8H236.505V156.2H232.505V160.2H228.505V161.8H232.505V165.8H236.505V172.2H230.105V168.2H226.105V164.2H224.505V172.2H218.105ZM246.517 165.8H256.117V164.2H246.517V165.8ZM244.117 172.2V168.2H240.117V161.8H244.117V157.8H256.117V156.2H244.117V149.8H258.517V153.8H262.517V172.2H244.117Z" fill="#F2F2F2"/>
<defs>
<clipPath id="clip0_227_7474">
<rect width="128" height="128" fill="white" transform="translate(69.7)"/>
</clipPath>
</defs>
</svg>
