<svg width="256" height="256" viewBox="0 0 256 256" fill="none" xmlns="http://www.w3.org/2000/svg">
<g clip-path="url(#clip0_227_7369)">
<path fill-rule="evenodd" clip-rule="evenodd" d="M128.083 67.9973C112.239 67.9973 110.654 69.672 102.454 69.672C95.624 69.672 75.1126 53 64.8676 53C54.6227 53 42.6541 59.0053 42.6541 76.3387V96.3387C42.6755 101.587 44.5811 117.672 52.0748 113.373C43.2215 123.805 42.333 135.976 42.4507 147.752C40.0634 148.435 37.6333 149.213 35.2674 150.013C27.945 152.509 20.1729 155.688 16.6723 157.949C14.8836 159.101 13.6272 160.913 13.1795 162.987C12.7318 165.062 13.1295 167.228 14.285 169.011C15.4406 170.793 17.2594 172.045 19.3413 172.491C21.4232 172.937 23.5977 172.541 25.3864 171.389C27.0565 170.312 33.105 167.656 40.4595 165.149L42.9003 164.349C43.3928 168.968 44.6239 173.203 46.4545 177.043L46.1976 177.181C41.8084 179.485 37.7404 182.141 35.1497 183.827L33.94 184.616C32.1513 185.767 30.8949 187.58 30.4472 189.654C29.9995 191.728 30.3971 193.895 31.5527 195.677C32.7083 197.46 34.5271 198.711 36.609 199.158C38.6909 199.604 40.8654 199.207 42.6541 198.056L44.0565 197.139C46.6793 195.432 50.0408 193.245 53.702 191.325C54.5584 190.87 55.3827 190.458 56.1749 190.088C74.6951 207.4 107.957 213 128.083 213C148.209 213 181.47 207.4 199.99 190.088C200.775 190.458 201.6 190.87 202.463 191.325C206.124 193.245 209.486 195.432 212.109 197.139L213.511 198.056C215.3 199.207 217.474 199.604 219.556 199.158C221.638 198.711 223.457 197.46 224.612 195.677C225.768 193.895 226.166 191.728 225.718 189.654C225.27 187.58 224.014 185.767 222.225 184.616L221.015 183.827C217.438 181.443 213.751 179.225 209.968 177.181L209.711 177.043C211.541 173.203 212.772 168.968 213.265 164.349L215.706 165.149C223.06 167.656 229.109 170.312 230.789 171.389C232.577 172.476 234.721 172.824 236.762 172.358C238.804 171.893 240.582 170.651 241.717 168.897C242.853 167.144 243.256 165.018 242.84 162.972C242.425 160.927 241.223 159.125 239.493 157.949C235.992 155.688 228.22 152.509 220.908 150.013C218.527 149.203 216.129 148.446 213.714 147.741C213.843 135.965 212.944 123.805 204.08 113.373C211.573 117.672 213.5 101.587 213.511 96.328V76.3387C213.511 59.0053 201.553 53 191.297 53C181.053 53 160.541 69.672 153.722 69.672C145.511 69.672 143.926 67.9973 128.083 67.9973ZM120.856 166.067C123.019 165.331 125.578 165 128.083 165C130.588 165 133.146 165.331 135.319 166.067C136.39 166.429 137.675 167.005 138.831 167.923C139.623 168.519 140.271 169.285 140.726 170.163C141.182 171.042 141.434 172.011 141.464 173C141.464 175.453 139.976 177.16 138.831 178.077C137.685 178.995 136.379 179.571 135.319 179.933C133.146 180.669 130.588 181 128.083 181C125.578 181 123.019 180.669 120.856 179.933C119.585 179.518 118.394 178.891 117.334 178.077C116.542 177.481 115.895 176.715 115.439 175.837C114.983 174.958 114.731 173.989 114.701 173C114.701 170.547 116.189 168.84 117.334 167.923C118.48 167.005 119.797 166.429 120.856 166.067ZM151.313 133C152.78 130.568 155.659 127.667 159.984 127.667C164.309 127.667 167.2 130.568 168.656 133C170.176 135.549 170.904 138.621 170.904 141.672C170.904 144.723 170.176 147.784 168.656 150.323C167.2 152.765 164.309 155.667 159.984 155.667C155.659 155.667 152.78 152.765 151.313 150.333C149.804 147.697 149.028 144.707 149.065 141.672C149.065 138.621 149.793 135.549 151.313 133.011M87.5094 133.011C88.976 130.579 91.8558 127.677 96.1807 127.677C100.506 127.677 103.396 130.579 104.852 133.011C106.372 135.56 107.1 138.632 107.1 141.683C107.1 144.733 106.372 147.795 104.852 150.333C103.396 152.776 100.506 155.677 96.1807 155.677C91.8558 155.677 88.976 152.776 87.5094 150.344C86.0004 147.707 85.2244 144.718 85.2613 141.683C85.2613 138.632 85.9892 135.549 87.5094 133.011Z" fill="#F2F2F2"/>
</g>
<defs>
<clipPath id="clip0_227_7369">
<rect width="256" height="256" fill="white"/>
</clipPath>
</defs>
</svg>
